<svg width="28" height="28" viewBox="0 0 28 28" fill="none" xmlns="http://www.w3.org/2000/svg">
<circle cx="14" cy="14" r="13.5" fill="white" stroke="#3167EB"/>
<path d="M21.575 16.625H21.15V13.6691C21.15 13.3219 21.0145 12.9883 20.7755 12.7422L18.1219 10.0105C17.8828 9.76445 17.5588 9.625 17.2214 9.625H16.05V8.3125C16.05 7.58789 15.4789 7 14.775 7H6.275C5.57109 7 5 7.58789 5 8.3125V17.0625C5 17.7871 5.57109 18.375 6.275 18.375H6.7C6.7 19.8242 7.84219 21 9.25 21C10.6578 21 11.8 19.8242 11.8 18.375H15.2C15.2 19.8242 16.3422 21 17.75 21C19.1578 21 20.3 19.8242 20.3 18.375H21.575C21.8088 18.375 22 18.1781 22 17.9375V17.0625C22 16.8219 21.8088 16.625 21.575 16.625ZM9.25 19.6875C8.54609 19.6875 7.975 19.0996 7.975 18.375C7.975 17.6504 8.54609 17.0625 9.25 17.0625C9.95391 17.0625 10.525 17.6504 10.525 18.375C10.525 19.0996 9.95391 19.6875 9.25 19.6875ZM17.75 19.6875C17.0461 19.6875 16.475 19.0996 16.475 18.375C16.475 17.6504 17.0461 17.0625 17.75 17.0625C18.4539 17.0625 19.025 17.6504 19.025 18.375C19.025 19.0996 18.4539 19.6875 17.75 19.6875ZM19.875 14H16.05V10.9375H17.2214L19.875 13.6691V14Z" fill="#3167EB"/>
</svg>
