<svg width="18" height="18" viewBox="0 0 18 18" fill="none" xmlns="http://www.w3.org/2000/svg">
<rect width="18" height="18" rx="2" fill="#DADADA"/>
<path d="M9.63649 9.00009L11.5595 7.07703L11.9561 6.68046C12.0146 6.62196 12.0146 6.52689 11.9561 6.46839L11.5318 6.04406C11.4733 5.98556 11.3782 5.98556 11.3197 6.04406L9.00009 8.3637L6.68046 6.04388C6.62196 5.98537 6.52689 5.98537 6.46839 6.04388L6.04388 6.4682C5.98537 6.5267 5.98537 6.62177 6.04388 6.68027L8.3637 9.00009L6.04388 11.3197C5.98537 11.3782 5.98537 11.4733 6.04388 11.5318L6.4682 11.9561C6.5267 12.0146 6.62177 12.0146 6.68027 11.9561L9.00009 9.63649L10.9232 11.5595L11.3197 11.9561C11.3782 12.0146 11.4733 12.0146 11.5318 11.9561L11.9561 11.5318C12.0146 11.4733 12.0146 11.3782 11.9561 11.3197L9.63649 9.00009Z" fill="white"/>
</svg>
